<svg xmlns="http://www.w3.org/2000/svg" xmlns:xlink="http://www.w3.org/1999/xlink" viewBox="0 0 512 512"><defs><style>.a{clip-path:url(#b);}.b{fill:#fff;stroke:#707070;}.c{fill:rgba(0,0,0,0);}</style><clipPath id="b"><rect width="512" height="512"/></clipPath></defs><g id="a" class="a"><rect class="c" width="512" height="512"/><path class="b" d="M329.733,482H264.551L205.416,379.164A315.639,315.639,0,0,0,224.894,335.2a109.067,109.067,0,0,1,19.6-2,115.668,115.668,0,0,1,20,2l2.4-16c-7.961-1.327-19.939-2-35.6-2,4.353-14.065,8.735-27.438,13.021-39.751l56.271,97.031h2.05c-2.916-55.416-4.395-95.14-4.395-118.066V165.265A233.878,233.878,0,0,0,281.894,190.2c-12.208,21.339-24.851,50.693-37.578,87.247l-18.682-32.215c-4.394,11.426-8.68,23.931-12.74,37.169-7.7,24.157-11.871,36.942-12.4,38-8.956.9-17.9,2.233-26.6,3.952h0l-23.245-40.423A197.992,197.992,0,0,0,170.894,296.4l9.6-13.2a236.449,236.449,0,0,1-19.85-18.15,147.935,147.935,0,0,1-14.75-17.65,68.156,68.156,0,0,1-9.15-18.15,63.876,63.876,0,0,1-3.05-19.65,44.177,44.177,0,0,1,2.492-14.615,53.143,53.143,0,0,1,7.477-13.9,80.425,80.425,0,0,1,12.461-13.177,132.6,132.6,0,0,1,17.446-12.459h0l-14.5-25A150.538,150.538,0,0,0,132.294,150.8c-17.136,16.493-26.078,34.993-26.577,54.988L78.223,157.976H75.587c3.693,56.959,5.566,98.161,5.566,122.461v81.3A164.778,164.778,0,0,0,54.094,384.4c-15.925,16.722-24,33.814-24,50.8,0,11.147,3.634,20.231,10.8,27s17.058,10.2,29.4,10.2a69.337,69.337,0,0,0,10.858-.914V482h-30.7A256.9,256.9,0,0,1,0,438.72V97.279a256.88,256.88,0,0,1,50.945-43.6h63.606l44.519,76.769a187.109,187.109,0,0,1,20.3-10.528,230.623,230.623,0,0,1,22.921-8.72,284.546,284.546,0,0,1,45.05-10.5,327.4,327.4,0,0,1,48.35-3.5c.86,0,1.717,0,2.548.008v30.469c-2.02-.051-4.223-.078-6.548-.078-45.918,0-84.138,8.478-113.6,25.2-1.542.875-3.064,1.768-4.523,2.653l52.063,89.778c4.415-11.48,9.064-22.2,13.818-31.857A256.807,256.807,0,0,1,254.294,187a230.711,230.711,0,0,1,20.4-26.931,211.318,211.318,0,0,1,23.548-22.845h0v0l0-9.545c4.5.114,8.35.357,11.452.723-3.9,2.789-7.749,5.757-11.452,8.824v28.042a168.907,168.907,0,0,1,19.112-21.4A127.446,127.446,0,0,1,338.094,128a36.477,36.477,0,0,0,9.6-7.7,12.477,12.477,0,0,0,3.2-7.9,9.42,9.42,0,0,0-3.85-7.65c-2.555-2.024-6.441-3.555-11.55-4.55-9.68-1.886-22.213-2.892-37.252-2.991V53.68h31a256.879,256.879,0,0,1,50.738,43.37v341.9A256.924,256.924,0,0,1,329.733,482ZM81.152,471.486h0v-29.1h0a18.726,18.726,0,0,1-4.256-3.185,19.353,19.353,0,0,1-4.5-7.1,27.073,27.073,0,0,1-1.5-9.3,49.71,49.71,0,0,1,2.564-15.772,57.8,57.8,0,0,1,7.694-14.95v50.308A25.93,25.93,0,0,0,93.694,445.2c12.209,0,25.2-4.307,38.6-12.8s26.188-21.143,38-37.6a150.619,150.619,0,0,0,20.613-40.868v0l-8.249-14.345c4.123-.626,8.374-1.159,12.638-1.585-1.226,5.447-2.7,10.807-4.387,15.93v0l14.51,25.232c-2.2,3.988-4.465,7.768-6.722,11.236a170.427,170.427,0,0,1-15.75,20.5,202.883,202.883,0,0,1-19.65,19.1,201.754,201.754,0,0,1-22.8,16.8,208.479,208.479,0,0,1-25.2,13.6A174.171,174.171,0,0,1,97.2,467.516a107.159,107.159,0,0,1-16.048,3.97Zm0-79.409V361.732A227.746,227.746,0,0,1,117.494,342a272.8,272.8,0,0,1,56.4-17.648h0l8.76,15.234c-29.093,4.419-54.516,13.912-75.563,28.215-11.232,7.633-19.959,15.8-25.94,24.275Zm69.5-108.151a138.2,138.2,0,0,1-19.665-16.7,98.821,98.821,0,0,1-14.049-18.289A80.028,80.028,0,0,1,105.694,207.6c0-.6.008-1.208.023-1.812l44.932,78.136Z" transform="translate(65.906 -12)"/></g></svg>